# xmcd
#
# Track frame offsets: 
#        150
#        17478
#        36320
#        48911
#        64058
#
# Disc length: 1060 seconds
#
# Revision: 0
# Processed by: cddbd v1.5.2PL0 Copyright (c) Steve Scherf et al.
# Submitted via: ExactAudioCopy v0.95b3
#
DISCID=38042205
DTITLE=Perversor - Demon Metal
DYEAR=2010
DGENRE=Thrash Metal
TTITLE0=Detonate
TTITLE1=Victory Of The Legions Of The Damned
TTITLE2=Enthrone The God Of Blasphemy
TTITLE3=March To The Temple Of Doom
TTITLE4=Command
EXTD=
EXTT0=
EXTT1=
EXTT2=
EXTT3=
EXTT4=
PLAYORDER=
